<svg width="201" height="50" viewBox="0 0 201 50" fill="none" xmlns="http://www.w3.org/2000/svg">
<mask id="mask0_3624_48189" style="mask-type:alpha" maskUnits="userSpaceOnUse" x="0" y="0" width="201" height="50">
<rect width="201" height="50" fill="#19398A"/>
</mask>
<g mask="url(#mask0_3624_48189)">
<path d="M108.571 -8.50063C106.156 -6.00434 103.65 -3.5832 101.005 -1.27451C100.203 -0.579942 99.3865 0.109017 98.5293 0.773728C99.0132 -0.142711 99.5304 -1.02748 100.071 -1.90724C103.814 -8.00744 108.231 -13.7493 112.932 -19.2874C114.446 -21.0057 117.425 -19.5469 116.568 -17.4827C113.349 -10.2235 109.805 -3.01392 105.141 3.63253C105.975 -0.474282 107.168 -4.50657 108.572 -8.4938L108.571 -8.50063ZM89.6091 -0.797828C88.0759 -5.45132 86.9918 -10.2364 86.0757 -15.0279C85.3159 -11.4141 84.4321 -7.81786 83.3757 -4.26973C83.0445 -3.17329 82.7057 -2.07626 82.3055 -0.981214C82.1717 -3.25514 82.1925 -5.51386 82.2507 -7.78241C82.408 -13.4067 82.9248 -19.0388 83.6364 -24.6315L84.0961 -27.9815C84.2092 -28.8411 84.9705 -29.5531 85.9734 -29.6599C87.1356 -29.7862 88.1776 -29.0455 88.294 -28.005C88.5272 -26.0134 88.8646 -23.2205 89.0346 -21.2513C89.6398 -14.4662 90.0434 -7.61715 89.6015 -0.797227L89.6091 -0.797828ZM58.6463 -23.2091C64.7762 -15.2286 70.765 -7.09963 76.0095 1.39005C70.8307 -3.60602 65.9726 -8.89505 61.2536 -14.2637C63.5724 -9.56261 65.7874 -4.81901 67.829 -0.0411172C68.4743 1.46512 69.0897 2.98058 69.6757 4.51208C67.6843 1.82951 65.8253 -0.918442 63.9952 -3.68925C59.4642 -10.5889 55.2237 -17.6831 51.179 -24.8202L48.778 -29.1237C48.3201 -29.9381 48.5883 -30.961 49.4539 -31.5235C50.407 -32.1409 51.7251 -31.9571 52.4002 -31.1118C54.2548 -28.7888 56.8603 -25.5375 58.6387 -23.2085L58.6463 -23.2091ZM28.1851 -11.1727C25.434 -13.1229 19.9505 -17.0726 17.227 -19.0592C16.4122 -19.6464 16.2098 -20.7075 16.7859 -21.5283C17.4097 -22.4216 18.7206 -22.6968 19.7007 -22.1501C25.4263 -18.981 31.7018 -15.4644 37.3058 -12.1897C47.0081 -6.5226 56.6355 -0.739853 65.8872 5.50486C57.0284 1.60961 48.3923 -2.65314 39.8309 -7.03158C45.7016 -2.47446 51.4725 2.17289 57.0814 6.90166C58.7944 8.34396 60.4786 9.80912 62.1493 11.2959C58.2254 8.97214 54.3991 6.53084 50.5863 4.0679C43.0229 -0.849179 35.5176 -5.99039 28.1851 -11.1727ZM-11.1875 1.16426L-20.9592 -1.71886C-21.9881 -2.02159 -22.5896 -2.99618 -22.3239 -3.95709C-22.0399 -4.97433 -20.8882 -5.60059 -19.7496 -5.36143C-8.41458 -2.94508 4.56604 -0.0895897 15.8009 2.50619C30.9674 6.03249 46.2061 9.69028 61.1826 13.7942C46.5199 11.5452 31.8446 8.865 17.2816 6.0593C29.2857 9.89767 41.2318 13.871 53.0561 18.0392C54.6515 18.6126 56.2458 19.1725 57.8352 19.767C54.9841 19.1146 50.7354 18.0582 47.8798 17.3512C28.042 12.3835 8.38296 6.88718 -11.1864 1.1779L-11.1875 1.16426ZM57.409 28.8222C41.5393 28.9464 25.6904 28.6711 9.84066 28.2929C-1.52409 28.0262 -14.3744 27.589 -25.7831 27.1612L-37.6483 26.6802C-38.7402 26.6363 -39.6181 25.8414 -39.6392 24.8415C-39.6567 23.7932 -38.7243 22.9236 -37.5543 22.8927C-5.90901 22.0617 26.1172 21.4819 57.7287 22.1011C40.7213 23.3925 23.5864 24.3441 6.45032 25.0968C15.5995 25.6349 24.7298 26.2225 33.7428 26.8743C41.6323 27.4709 49.5283 28.0533 57.4154 28.808L57.409 28.8222ZM58.5495 37.918C40.1341 42.4903 21.6253 46.6721 3.0781 50.7609C-10.2225 53.6935 -25.2954 56.883 -38.6921 59.6723L-52.642 62.5396C-53.7272 62.7627 -54.8243 62.191 -55.126 61.227C-55.4387 60.2227 -54.7745 59.1685 -53.6492 58.8736C-17.0806 49.3381 19.9828 39.9486 56.9283 31.8239C38.2917 37.5252 19.4336 42.9558 0.514666 48.206C10.5285 46.3088 20.5315 44.4673 30.426 42.7031C39.786 41.0566 49.1531 39.4027 58.5495 37.918ZM63.3799 46.7766C43.4478 56.7515 23.3108 66.379 3.12792 75.9141C-11.3528 82.7545 -27.8002 90.3749 -42.4275 97.1102L-57.6635 104.086C-58.6605 104.542 -59.8897 104.228 -60.4446 103.352C-61.0171 102.451 -60.6605 101.291 -59.6387 100.764C-20.3071 80.3967 19.8488 59.8956 59.9219 40.8074C39.1393 52.551 17.9493 64.0936 -3.33916 75.4656C8.57365 70.2006 20.5279 64.9734 32.4373 59.8527C42.735 55.4496 53.0165 51.034 63.3951 46.7754L63.3799 46.7766ZM-43.9922 142.101C-7.44071 110.785 29.9628 79.1137 67.5938 48.8991C49.8596 65.1763 31.728 81.3751 13.4482 97.4485C22.7753 90.2888 32.114 83.1763 41.3069 76.2468C50.8836 69.0468 60.4598 61.84 70.1539 54.7611C51.9462 70.129 33.4543 85.2106 14.8872 100.216C-2.81845 114.515 -23.2173 130.729 -41.166 144.869C-43.3504 146.448 -45.9177 143.845 -44.0004 142.095L-43.9922 142.101Z" fill="url(#paint0_radial_3624_48189)"/>
<path d="M63.5218 45.562C66.0687 42.5835 68.5274 39.5193 70.7029 36.274C66.1983 39.5861 62.0837 43.3887 58.0916 47.2745C56.9316 48.402 55.3315 50.0505 54.1954 51.2246C53.5995 51.8369 53.6215 52.8049 54.2463 53.3889C54.7824 53.8927 55.5933 53.9439 56.191 53.5539C57.7058 52.5695 59.2211 51.5797 60.7119 50.5487C64.4498 47.9779 68.1025 45.2883 71.557 42.3586C72.253 41.7665 72.9382 41.1678 73.6037 40.5396C72.7492 40.8898 71.9151 41.264 71.0851 41.6552C68.5122 42.8658 65.9979 44.1761 63.5218 45.562ZM76.6515 56.4667C78.4839 54.5173 80.3785 52.629 82.3827 50.8395C82.9888 50.3003 83.606 49.7621 84.2544 49.2545C83.88 49.9813 83.4795 50.6834 83.0684 51.3791C80.1831 56.2035 76.806 60.7169 73.2295 65.0624C72.0773 66.4071 69.9075 65.1447 70.578 63.5009C73.0938 57.727 75.8599 52.0034 79.4301 46.7635C78.7347 50.054 77.7732 53.2815 76.6576 56.4617L76.6515 56.4667ZM90.808 50.7695C91.8489 54.5725 92.5525 58.4671 93.1371 62.362C93.7732 59.4604 94.4976 56.5834 95.343 53.7451C95.6074 52.8641 95.8824 51.9895 96.1968 51.1186C96.2503 52.9556 96.1914 54.7824 96.1033 56.6177C95.8739 61.1552 95.3834 65.6967 94.7501 70.192L94.3487 72.8873C94.244 73.5774 93.6706 74.1306 92.9284 74.1911C92.0667 74.2575 91.3153 73.6342 91.2476 72.7898C91.1111 71.1729 90.9163 68.9122 90.8293 67.3109C90.5209 61.8087 90.3519 56.2691 90.8136 50.77L90.808 50.7695ZM113.222 69.738C108.855 63.1188 104.589 56.3866 100.887 49.3835C104.617 53.5632 108.099 57.9758 111.474 62.4398C109.855 58.5789 108.313 54.6862 106.898 50.766C106.453 49.5321 106.027 48.2887 105.624 47.0363C107.04 49.2576 108.361 51.5314 109.652 53.8192C112.86 59.5172 115.855 65.3682 118.694 71.2494L120.383 74.789C120.705 75.4622 120.486 76.2807 119.84 76.7053C119.121 77.1787 118.153 76.9912 117.67 76.2867C116.345 74.3568 114.486 71.6568 113.218 69.7265L113.222 69.738ZM135.961 60.8647C137.958 62.5168 141.926 65.8575 143.897 67.5406C144.485 68.0379 144.619 68.8995 144.173 69.5476C143.693 70.2481 142.724 70.4379 142.009 69.9679C137.846 67.2481 133.281 64.2309 129.205 61.4301C122.15 56.5829 115.16 51.6418 108.448 46.3426C114.909 49.7369 121.208 53.4163 127.44 57.1952C123.197 53.3465 119.023 49.432 114.979 45.457C113.744 44.246 112.523 43.0139 111.321 41.7669C114.17 43.7571 116.949 45.8297 119.714 47.9289C125.201 52.1066 130.642 56.469 135.955 60.8642L135.961 60.8647ZM165.271 51.9923L172.43 54.5948C173.181 54.8682 173.609 55.6731 173.389 56.4416C173.16 57.2536 172.293 57.7304 171.465 57.5055C163.146 55.2422 153.614 52.5692 145.366 50.1624C134.236 46.8896 123.054 43.512 112.08 39.7814C122.867 42.0072 133.644 44.5763 144.342 47.2549C135.551 43.8217 126.809 40.2765 118.167 36.5792C117.002 36.0685 115.831 35.5738 114.673 35.0526C116.763 35.6583 119.884 36.6292 121.976 37.2794C136.524 41.8445 150.931 46.8354 165.271 51.9923ZM115.17 27.7412C126.887 28.0858 138.586 28.7507 150.283 29.4932C158.668 30.0248 168.153 30.7391 176.566 31.4008L185.319 32.1211C186.122 32.1938 186.756 32.8565 186.749 33.6608C186.743 34.5042 186.033 35.1839 185.172 35.1781C161.788 34.971 138.13 34.5447 114.801 33.1598C127.386 32.5892 140.053 32.2981 152.722 32.168C145.977 31.4797 139.247 30.7483 132.607 29.9695C126.793 29.2654 120.972 28.5773 115.169 27.7467L115.17 27.7412ZM114.506 20.358C128.193 17.1777 141.947 14.3144 155.721 11.5307C165.597 9.5322 176.797 7.37595 186.741 5.4947L197.098 3.5675C197.905 3.4185 198.703 3.90715 198.906 4.69727C199.118 5.51593 198.609 6.34708 197.768 6.55409C170.579 13.2367 143.023 19.7862 115.585 25.3247C129.459 21.2398 143.493 17.3803 157.565 13.663C150.133 14.9167 142.711 16.1269 135.367 17.2776C128.423 18.3423 121.478 19.4235 114.506 20.3635L114.506 20.358ZM111.115 13.0665C126.031 5.56141 141.089 -1.64761 156.181 -8.79253C167.008 -13.9139 179.307 -19.6128 190.24 -24.6469L201.631 -29.8561C202.376 -30.1939 203.279 -29.9123 203.67 -29.1885C204.075 -28.4411 203.784 -27.5126 203.027 -27.1147C173.587 -11.7582 143.527 3.68098 113.563 17.9851C129.144 9.08007 145.015 0.340096 160.956 -8.24912C152.054 -4.32473 143.127 -0.435919 134.231 3.36685C126.541 6.63478 118.862 9.91473 111.115 13.0665ZM192.279 -60.9446C164.666 -36.6672 136.428 -12.1243 108.041 11.2336C121.454 -1.42096 135.166 -14.0041 148.976 -26.4784C141.946 -20.9577 134.908 -15.4655 127.986 -10.1293C120.772 -4.58076 113.558 0.973256 106.257 6.41953C120.002 -5.48881 133.957 -17.1561 147.962 -28.7632C161.321 -39.8182 176.699 -52.3504 190.232 -63.273C191.877 -64.4899 193.722 -62.313 192.268 -60.9512L192.279 -60.9446Z" fill="url(#paint1_radial_3624_48189)"/>
<ellipse cx="67.1731" cy="22.2358" rx="72.5" ry="83.2199" transform="rotate(62.7635 67.1731 22.2358)" fill="url(#paint2_radial_3624_48189)"/>
<ellipse cx="49.9886" cy="28.5048" rx="49.8318" ry="46.3179" transform="rotate(62.7635 49.9886 28.5048)" fill="url(#paint3_radial_3624_48189)"/>
</g>
<defs>
<radialGradient id="paint0_radial_3624_48189" cx="0" cy="0" r="1" gradientUnits="userSpaceOnUse" gradientTransform="translate(51.1485 52.0434) rotate(106.718) scale(101.146 110.224)">
<stop stop-color="#F47920"/>
<stop offset="0.65" stop-color="#DC3069"/>
<stop offset="1" stop-color="#D20F8C"/>
</radialGradient>
<radialGradient id="paint1_radial_3624_48189" cx="0" cy="0" r="1" gradientUnits="userSpaceOnUse" gradientTransform="translate(120.284 9.16277) rotate(-73.1941) scale(80.8996 82.2773)">
<stop offset="0.3" stop-color="#FDEE00"/>
<stop offset="0.36" stop-color="#F2EB06"/>
<stop offset="0.47" stop-color="#D5E416"/>
<stop offset="0.61" stop-color="#A6D831"/>
<stop offset="0.77" stop-color="#66C956"/>
<stop offset="0.96" stop-color="#14B585"/>
<stop offset="1" stop-color="#00B091"/>
</radialGradient>
<radialGradient id="paint2_radial_3624_48189" cx="0" cy="0" r="1" gradientUnits="userSpaceOnUse" gradientTransform="translate(67.1731 22.2358) rotate(90) scale(83.2199 72.5)">
<stop offset="0.35" stop-color="#19398A"/>
<stop offset="1" stop-color="#19398A" stop-opacity="0"/>
</radialGradient>
<radialGradient id="paint3_radial_3624_48189" cx="0" cy="0" r="1" gradientUnits="userSpaceOnUse" gradientTransform="translate(49.9886 28.5048) rotate(90) scale(46.3179 49.8318)">
<stop offset="0.35" stop-color="#19398A"/>
<stop offset="1" stop-color="#19398A" stop-opacity="0"/>
</radialGradient>
</defs>
</svg>
